<?xml version="1.0" encoding="UTF-8" standalone="no"?>
<!-- Generator: Adobe Illustrator 19.1.0, SVG Export Plug-In . SVG Version: 6.00 Build 0)  -->

<svg
   xmlns:dc="http://purl.org/dc/elements/1.1/"
   xmlns:cc="http://creativecommons.org/ns#"
   xmlns:rdf="http://www.w3.org/1999/02/22-rdf-syntax-ns#"
   xmlns:svg="http://www.w3.org/2000/svg"
   xmlns="http://www.w3.org/2000/svg"
   xmlns:sodipodi="http://sodipodi.sourceforge.net/DTD/sodipodi-0.dtd"
   xmlns:inkscape="http://www.inkscape.org/namespaces/inkscape"
   version="1.1"
   id="Calque_1"
   x="0px"
   y="0px"
   viewBox="-395 273.3 50 50"
   style="enable-background:new -395 273.3 50 50;"
   xml:space="preserve"
   sodipodi:docname="mesange.svg"
   inkscape:version="0.92.4 (5da689c313, 2019-01-14)"><metadata
   id="metadata927"><rdf:RDF><cc:Work
       rdf:about=""><dc:format>image/svg+xml</dc:format><dc:type
         rdf:resource="http://purl.org/dc/dcmitype/StillImage" /><dc:title></dc:title></cc:Work></rdf:RDF></metadata><defs
   id="defs925">
	
	
	
	
	
	
	
	
	
	
	
	
</defs><sodipodi:namedview
   pagecolor="#ffffff"
   bordercolor="#666666"
   borderopacity="1"
   objecttolerance="10"
   gridtolerance="10"
   guidetolerance="10"
   inkscape:pageopacity="0"
   inkscape:pageshadow="2"
   inkscape:window-width="1362"
   inkscape:window-height="729"
   id="namedview923"
   showgrid="false"
   inkscape:zoom="28.793388"
   inkscape:cx="19.966098"
   inkscape:cy="21.841668"
   inkscape:window-x="0"
   inkscape:window-y="18"
   inkscape:window-maximized="0"
   inkscape:current-layer="Calque_1" />
<style
   type="text/css"
   id="style891">
	.st0{fill:#777D88;}
	.st1{fill:#979AA2;}
	.st2{fill:#221F1C;}
	.st3{fill:#3A3736;}
	.st4{fill:#EDE97C;}
	.st5{fill:#302D29;}
	.st6{fill:#FFFFFF;}
	.st7{fill:#1D1D1B;}
	.st8{fill:#455666;}
	.st9{fill:#576A7D;}
</style>
<path
   style="fill:#979aa2"
   inkscape:connector-curvature="0"
   id="path903"
   d="m -360.29648,321.31615 c -0.5,-1.6 -5.1,-9 -5.8,-10.3 -0.7,-1.3 -3.5,-7.2 -3.5,-8.6 0,0 0,-0.1 0,-0.1 0.1,0.5 0.1,1 0,1.5 0,0 0,0.1 0,0.1 0.2,2.1 0.7,2 1.4,2.8 0.7,0.8 -0.6,0.8 -0.6,0.8 0,0 1.3,2.9 1.9,4.3 0.6,1.5 -0.8,0.4 -1.1,0.2 -0.3,0.2 -0.5,0.2 -0.8,0.1 0,0 4.7,7.4 5.4,10 0.2,0.8 0.9,1.3 1.4,0.5 0.3,0.4 0.8,0.6 1,0 0.4,0.3 1.2,0.3 0.7,-1.3 z"
   class="st1" /><path
   style="fill:#777d88"
   inkscape:connector-curvature="0"
   id="path893"
   d="m -376.35088,307.00176 c 0,0 -2.7,0.5 -3.6,0.8 -1,0.3 -1.5,0.6 -1.8,0.9 -0.3,0.3 -0.5,0.5 -0.6,1.2 -0.1,0.7 -0.1,0.8 -0.2,1.6 0,0.8 -0.3,2.1 0.9,2.6 0.3,0.1 0.6,0 0.3,-0.3 -0.3,-0.4 -0.8,-1.7 -0.1,-2.5 0.7,-0.8 1.4,-1.1 1.4,-1.1 l 1.3,-1.6 4.4,-0.9 -0.4,-0.6 h -1.6 z"
   class="st0" /><path
   style="fill:#979aa2"
   inkscape:connector-curvature="0"
   id="path895"
   d="m -374.84912,307.35088 c 0,0 -2.5,0.5 -3.1,0.5 -0.6,0 -1.7,0.3 -2,0.7 -0.4,0.4 -0.6,0.4 -0.8,0.8 -0.2,0.4 -0.9,1.2 -0.6,2.2 -0.1,0.5 -0.7,2 0.4,2.4 0,-0.3 -0.5,-0.6 -0.1,-1.3 0.1,0.3 0.5,0.7 0.9,0.4 -0.2,-0.4 0.2,-1.5 0.4,-1.9 0.3,-0.1 0.6,-1.8 1.1,-2 0.5,-0.2 0.7,-0.5 1.2,-0.5 0.5,0 2.9,-0.4 3.5,-0.6 0.6,-0.2 0,-0.9 -0.9,-0.7 z"
   class="st1" /><path
   style="fill:#221f1c"
   inkscape:connector-curvature="0"
   id="path897"
   d="m -382.54912,285.8 c 0,0 0.3,-3.3 0,-4.2 -0.3,-0.9 0.4,-2.2 1.1,-1.9 0.7,0.3 1.3,3.1 1.1,4.8 0.5,-0.5 1.2,-1.7 1.5,-3.6 0.3,-1.9 0.9,-3.1 2,-2.8 1.1,0.3 0.7,3.8 -0.3,5.8 0.5,-0.4 1.4,-1.1 1.9,-2.5 0.6,-1.4 1.6,-2.3 2.3,-1.7 0.6,0.6 1.1,2.3 -1.3,5 0.9,-0.4 2.1,-1.1 3.3,-2.2 1.2,-1.1 1.8,-0.5 2,0 0.2,0.5 -0.2,2.7 -2.5,3.3 1.7,-0.2 4.5,-1.5 5.3,-0.8 0.8,0.7 -4.6,5.8 -4.6,5.8 l -4.6,0.5 z"
   class="st2" /><path
   style="fill:#3a3736"
   inkscape:connector-curvature="0"
   id="path899"
   d="m -353.64032,283.59472 c 1.6,-0.4 5,-3.2 5.4,-4.1 -2.8,1.8 -6.7,2.7 -6.7,2.7 0,0 0.4,-0.6 0.8,-0.7 3.1,-1.9 4.9,-4.1 4.9,-4.9 -4,3.3 -7.3,4.5 -7.3,4.5 0,0 0.4,-0.5 0.8,-0.9 2.7,-2.2 4.2,-5.2 4.2,-5.9 -4.1,4.9 -6.3,6.1 -6.9,6.3 4.5,-4.2 3.6,-7.2 3.6,-7.2 0,0 -0.6,1.1 -0.8,1.8 -1.6,3.5 -4.2,5.7 -5.3,6.6 1.2,-1.1 2.5,-4.6 2.5,-4.6 0,0 -0.8,0.2 -1.3,1.8 -0.5,1.6 -2.3,3.5 -2.3,3.5 0,0 -0.9,0.5 -1.3,0.8 -0.4,0.3 -4.7,3 -5.4,3.3 -0.8,0.3 -1.6,0.9 -2.2,1.1 -0.5,0.2 -2,1.3 -3,2 -1.1,0.7 -1.5,0.9 -1.5,0.9 -0.1,0.1 -0.2,0.2 -0.3,0.3 0,0 -0.1,0.1 -0.1,0.1 -0.7,0.5 -0.2,1.1 1.4,1.1 0.4,0 0.8,0.1 1.2,0.3 l 1,1.4 c -0.1,0.1 -0.3,0.2 -0.5,0.3 -0.4,0.1 -0.7,0.2 -0.9,0.4 -0.7,0.5 -0.5,1.3 0.1,1.3 0.4,0 0.7,0.1 1.1,0.2 0.1,0 0.1,0 0.2,0 0.5,0.1 0.9,0.3 1.3,0.5 0.1,0.3 0.3,1.1 0.5,2 0.1,0.5 0.2,1.1 0.3,1.6 0,-0.1 0,-0.2 0.1,-0.3 0.4,1.4 0.9,2.7 1.3,3 0.8,0.6 1.5,-0.3 1.7,-0.8 1.9,0.7 1.8,-0.2 2.2,-0.8 1.9,-0.6 1.4,-1.7 1.3,-2.2 2.3,-0.3 2.2,-1.7 1.9,-2.1 2.9,-0.4 2.8,-2.7 2.6,-2.9 3.5,-0.8 2.9,-1.9 2.5,-2.2 2,0.1 2.7,-0.9 2.7,-1.4 0.3,-0.1 0.4,-0.2 0.4,-0.4 0.4,0 0.9,-0.8 0.8,-1.1 0.3,-0.2 0,-0.7 -0.7,-1 0.5,-0.2 2.7,-2.1 2.8,-2.3 0.2,-0.2 -0.7,-0.5 -1.8,-0.3 0.5,-0.1 3.9,-2.3 3.8,-2.5 -0.4,-0.1 -3.6,0.7 -5.1,0.8 z"
   class="st3" /><path
   style="fill:#ede97c"
   inkscape:connector-curvature="0"
   id="path901"
   d="m -383.04912,296.5 c -0.3,-0.6 -0.8,-1.4 -0.8,-1.4 0.3,1.5 0.9,3.2 1.9,4.8 0.2,-0.9 -0.9,-2.7 -1.1,-3.4 z"
   class="st4" /><path
   style="fill:#302d29"
   inkscape:connector-curvature="0"
   id="path905"
   d="m -366.84912,311.9 c -0.6,-1.5 -1.9,-4.3 -1.9,-4.3 0,0 1.3,0 0.6,-0.8 -0.7,-0.8 -1.1,-0.7 -1.4,-2.8 0,0 0,-0.1 0,-0.1 -0.1,1.2 -0.6,2.2 -1.4,2.8 -0.2,0.1 -0.4,0.2 -0.6,0.3 0,0 0,0 -0.1,0 -0.4,0.2 -0.9,0.3 -1.5,0.2 0,0 -0.1,0 -0.1,0 -1.8,-0.3 -3.4,-2.2 -4.5,-3.5 -0.2,-0.2 -0.4,-0.5 -0.6,-0.8 -1.1,-1.7 -2.7,-4.7 -3.3,-6.3 -0.8,-1.9 0.7,-2.3 0.7,-2.3 0,0 0.9,-0.2 1.8,-0.8 0.2,-0.1 0.4,-0.3 0.6,-0.5 0.5,-0.6 1,-1.4 1,-2.3 0,-0.2 0,-0.4 0,-0.6 -0.3,-1.4 -0.6,-1.9 -0.6,-1.9 0,-0.1 -0.1,-0.1 -0.1,-0.2 -0.4,-0.6 -1.8,-1.5 -1.8,-1.5 v 0 c -0.8,-0.6 -2,-1.1 -3.4,-1.1 -2.4,0 -4.4,1.3 -4.4,3 0,0.8 0.5,1.5 1.2,2 v 0 c 0,0 0,0 0,0 0.1,0.1 0.1,0.1 0.2,0.1 0.6,0.4 2,1.7 2.3,4.2 0,0 0.1,0.1 0.1,0.1 0,0.1 0,0.2 0.1,0.3 0,0 0.5,0.7 0.8,1.4 0.3,0.6 1.3,2.5 1.1,3.4 0.3,0.5 0.6,1 1,1.5 0.4,0.5 0.8,1.1 1.2,1.5 0,0 0,0 0,0 0,0 2.2,3.6 3.1,4 0.9,0.4 1.3,0.5 1.9,0.4 0.6,0 0.9,0.3 1,0.6 0.1,0.3 0.5,1.1 1.6,0.2 0.3,0.3 1.1,2.1 1.8,2.4 0,0 0.3,0.2 0.5,0.1 0.3,0.5 0.7,1.3 1.2,1.6 0.2,0.1 0.5,0.1 0.8,-0.1 0.2,0.2 1.6,1.2 1.1,-0.2 z"
   class="st5" /><path
   style="fill:#ede97c;stroke-width:1.00653458"
   inkscape:connector-curvature="0"
   id="path907"
   d="m -369.34825,302.68855 c 0,-0.30264 -0.10046,-0.70616 -0.20085,-1.00881 0,0 0,0 0,0 -0.10045,-0.5044 -0.10045,-1.00881 -0.20086,-1.51321 -0.20085,-1.41232 -0.50213,-2.62288 -0.90384,-3.63169 -0.4017,-0.20177 -0.90384,-0.40353 -1.5064,-0.60528 -0.30128,-0.10089 -0.70299,-0.10089 -1.10469,-0.20177 -0.50214,0 -0.70299,-0.80704 -0.10046,-1.31144 0.20086,-0.20177 0.50214,-0.30265 0.90385,-0.40353 0.20085,-0.10088 0.40171,-0.20175 0.50213,-0.30264 -0.30128,-0.50441 -0.60255,-1.00881 -0.90384,-1.41232 0,0 0,-0.10088 -0.10045,-0.10088 -0.40172,-0.20177 -0.80343,-0.30265 -1.20513,-0.30265 -1.60683,0 -2.10897,-0.60528 -1.40598,-1.10968 0.10045,-0.10088 0.30128,-0.20176 0.40172,-0.30265 -0.50214,-0.30264 -0.90385,-0.5044 -1.30556,-0.60528 -0.90385,-0.30264 -1.30555,-1.10969 -1.70726,-1.71497 0,0 0.40171,0.60528 0.60257,1.91673 0,0.20176 0.10045,0.40352 0,0.60529 0,0.90791 -0.40171,1.71496 -1.00427,2.32025 -0.20085,0.20175 -0.40171,0.40352 -0.60256,0.5044 -0.90385,0.60528 -1.80768,0.80705 -1.80768,0.80705 0,0 -1.50642,0.40351 -0.70299,2.32025 0.60255,1.61409 2.20939,4.64051 3.31408,6.35547 0.20085,0.30264 0.40171,0.60529 0.60256,0.80704 1.10469,1.31146 2.71153,3.22818 4.51922,3.53083 0.60255,0.10087 1.10469,0 1.60682,-0.20176 0,0 0,0 0.10046,0 v 0 c 0.20086,-0.10089 0.4017,-0.20177 0.60256,-0.30265 0.80341,-0.60528 1.30556,-1.61409 1.40598,-2.82465 0.30128,-0.30265 0.30128,-0.80705 0.20085,-1.31145 z"
   class="st4" /><path
   style="fill:#ffffff"
   inkscape:connector-curvature="0"
   id="path909"
   d="m -386.54912,288.8 c 0,0 0,0.6 0.7,1.2 0.8,0.6 1.8,1.8 2.5,1.8 0.7,0 2.3,-0.2 2.7,-0.7 0.4,-0.5 0.1,0.6 -0.1,0.8 -0.2,0.2 0.2,0.5 0.7,-0.4 0.5,-0.9 1,-1.3 1.1,-1.6 0,-0.3 0,-1.7 -0.9,-1.9 -0.9,-0.2 0,0.4 -0.1,0.5 -0.1,0.2 -0.2,0.2 -0.8,-0.1 -0.5,-0.3 -1.1,-0.4 -1.7,-0.3 -0.6,0.1 -3.5,0.6 -3.7,0.5 -0.3,0 -0.5,0 -0.4,0.2 z"
   class="st6" /><circle
   style="fill:#1d1d1b"
   id="circle911"
   r="0.5"
   cy="287.89999"
   cx="-384.9491"
   class="st7" /><circle
   style="fill:#ffffff"
   id="circle913"
   r="0.2"
   cy="287.70001"
   cx="-384.9491"
   class="st6" /><g
   id="g919"
   transform="translate(-0.04911591)">
		<path
   style="fill:#455666"
   inkscape:connector-curvature="0"
   id="path915"
   d="m -389.9,289.3 c -0.5,0 -0.6,0.2 -0.6,0.2 0.1,0 0.2,0.1 0.4,0.1 0.8,0 2.5,-0.1 3.2,0.4 0.1,0.1 0.3,-0.3 0.4,-0.6 0,0 -0.3,-0.1 -0.6,-0.1 -0.3,-0.1 -2.3,0 -2.8,0 z"
   class="st8" />
		<path
   style="fill:#576a7d"
   inkscape:connector-curvature="0"
   id="path917"
   d="m -386.7,289.1 c -0.2,-0.2 -0.4,-0.4 -0.5,-0.7 -0.1,-0.2 -0.1,-0.8 -0.4,-0.9 0,0 -2.7,1.4 -2.8,1.5 -0.1,0.1 -0.4,0.4 -0.1,0.5 0,0 0.2,-0.2 0.6,-0.2 0.5,0 2.5,-0.2 2.7,-0.1 0.2,0.1 0.6,0.1 0.6,0.1 0,0 0,-0.1 -0.1,-0.2 z"
   class="st9" />
	</g>
</svg>